<svg width="193" height="193" viewBox="0 0 193 193" fill="none" xmlns="http://www.w3.org/2000/svg">
<g clip-path="url(#clip0_29_10)">
<path d="M94.4227 10.7642H96.0279L98.5773 11.0475L100.655 11.5196L102.637 12.1805L104.904 13.2192L106.414 14.1634L107.736 15.1076L108.964 16.1463L110.663 17.8459L111.702 19.1678L112.646 20.5842L113.591 22.2838L114.535 24.2666L115.668 25.5886L116.99 27.1937L118.123 28.5157L118.878 29.4599L120.106 30.8762L120.861 31.8205L121.9 33.0479L122.655 33.9922L123.694 35.2197L124.544 36.2583L125.677 37.5802L126.526 38.6189L127.565 39.8464L128.32 40.7906L129.454 42.1125L130.303 43.1512L131.342 44.3787L132.192 45.4173L133.23 46.6448L133.986 47.589L135.119 48.911L135.874 49.8552L137.007 51.1771L137.763 52.1213L138.896 53.4433L139.651 54.3875L140.879 55.8038L141.634 56.748L142.673 57.9755L143.428 58.9198L144.561 60.2417L145.317 61.1859L147.394 63.6409L148.244 64.6796L150.321 67.1345L151.076 68.0788L152.115 69.3063L152.965 70.3449L154.003 71.5724L155.703 73.6497L157.214 74.4051L159.386 75.5382L160.896 76.5768L161.935 77.4266L162.879 78.2764L164.107 79.5039L164.956 80.5426L165.901 81.8645L166.939 83.6585L167.789 85.4525L168.545 87.7187L169.017 89.9848L169.205 91.59V94.4227L168.922 96.6888L168.45 98.7661L167.789 100.655L166.939 102.543L166.184 103.865L165.523 104.809V105.376L166.373 107.17L167.884 110.569L169.205 113.402L170.433 116.14L172.038 119.634L173.266 122.372L174.776 125.677L176.193 128.793L177.987 132.758L179.498 136.063L180.914 139.179L182.614 142.956L184.408 146.827L185.257 148.81L185.635 150.321V171.944L185.257 173.077L184.691 173.927L184.03 174.588L182.708 175.249L182.236 175.343L171.849 175.437H34.4643L24.6443 175.343L23.5113 175.06L22.6615 174.493L22.1893 174.021L21.7172 173.454L21.3395 172.699L21.0563 171.566V170.811L21.3395 169.772L21.8117 168.828L22.567 167.978L23.889 167.223L25.022 167.034H91.0235V153.909L91.3068 152.493L91.6845 151.36L92.4398 150.038L93.2896 148.999L94.2339 148.149L95.4614 147.394L96.5 146.922L98.1052 146.544L99.4271 146.45H112.93L113.307 145.883L114.157 143.9L114.818 142.578L115.951 140.029L117.462 136.724L118.312 134.741L118.973 133.325L119.822 131.436L120.483 130.02L122.277 126.149L123.505 123.41L125.016 120.106L126.81 116.14L128.415 112.646L129.265 110.758L131.059 106.792L131.625 105.565L131.814 104.998L130.964 103.676L130.209 102.354L129.265 100.182L128.604 98.1052L128.226 96.2167L128.037 94.706V91.59L128.32 89.796L128.793 87.6243L128.698 87.2466L127.471 85.6414L126.243 84.1306L125.11 82.6199L124.071 81.2979L118.123 73.6497L116.895 72.0445L115.762 70.6282L114.818 69.4007L113.591 67.7955L111.513 65.1517L107.547 60.0528L106.509 58.7309L105.187 57.0313L104.243 55.8038L102.921 54.1042L101.882 52.7823L100.749 51.2715L100.088 51.366L97.7275 51.8381L96.2167 52.0269H94.3283L91.9677 51.7436L89.6072 51.1771L89.135 51.366L87.9075 52.1213L86.3024 52.9711L84.1306 54.1986L78.6541 57.2202L76.4824 58.4477L71.1947 61.3748L69.023 62.6023L66.7569 63.8297L64.3963 65.1517L59.9584 67.6067L57.5979 68.9286L55.4261 70.1561L54.0098 70.9114L54.1042 72.9887L53.9154 74.8772L53.4433 77.1433L52.7823 78.9374L52.0269 80.4481L51.366 81.5812L50.5162 82.7143L49.8552 83.4697L49.9496 84.4139V113.968L49.7608 114.912L49.0998 116.234L48.3444 116.99L47.0225 117.651L46.1727 117.84H41.7348L41.8293 134.08L50.6106 134.175L51.7437 134.552L52.5935 135.119L53.2544 135.78L53.9154 137.102L54.0098 137.479V155.609L53.6321 156.647L53.0656 157.497L52.3102 158.347L51.7437 158.819L50.2329 160.33L49.6664 160.991L49.2887 161.368H49.0998L48.911 161.746L47.8723 162.501L47.0225 162.879L46.0783 163.068L44.9452 162.974L43.9066 162.596L43.0568 162.029L42.3958 161.274L41.8293 160.141L41.6404 159.386V158.441L41.9237 157.308L42.4902 156.364L43.34 155.42L45.6062 153.154L45.7006 152.965L45.795 142.484H29.3655L29.4599 153.059L32.5758 156.175L33.2368 157.308L33.5201 158.347V159.386L33.2368 160.519L32.387 161.841L31.4428 162.501L30.593 162.879L29.5543 163.068L28.5157 162.974L27.477 162.596L26.6272 162.029L25.683 161.18L22.3782 157.875L21.6228 156.931L21.2451 155.986L21.0563 154.57V138.896L21.1507 137.479L21.5284 136.346L22.1893 135.497L23.0392 134.741L24.0778 134.269L24.5499 134.175L33.3312 134.08L33.4256 133.986V117.84H29.1766L27.8547 117.556L26.8161 116.99L25.9663 116.14L25.3997 115.101L25.2109 114.157V84.4139L25.3053 83.4697L24.4555 82.5254L23.3224 80.8258L22.567 79.4095L21.8117 77.4266L21.2451 74.9716L21.0563 73.1776V72.0445L21.2451 70.0616L21.7172 67.9843L22.2838 66.2847L23.0392 64.6796L23.889 63.3576L24.6443 62.319L25.4941 61.3748L25.7774 60.9971H25.9663L26.1551 60.6194L26.9105 59.9584L28.4212 58.8253L30.0264 57.8811L32.0093 57.0313L33.9922 56.4648L35.9751 56.0871L37.297 55.0484L38.3356 54.1986L39.6575 53.16L41.1683 51.9325L42.4902 50.8938L43.5289 50.044L45.8894 48.1556L47.2114 47.1169L48.7221 45.8894L49.6664 45.1341L50.9883 44.0954L52.499 42.8679L53.821 41.8293L54.8596 40.9795L56.3704 39.752L57.9755 38.5245L59.203 37.4858L60.4305 36.5416L61.9413 35.3141L63.2632 34.2754L64.774 33.0479L66.0959 32.0093L67.7011 30.6874L68.9286 29.7432L69.9672 28.8933L71.478 27.6659L73.0832 26.4384L74.2163 25.4941L75.727 24.3611L76.7657 22.1893L77.7099 20.4897L78.843 18.8845L79.6928 17.8459L81.0147 16.4296L82.0533 15.4853L83.5641 14.3523L84.7916 13.5969L86.3024 12.7471L88.6629 11.8028L90.3625 11.3307L92.3454 10.953L94.4227 10.7642Z" fill="white"/>
<path d="M138.518 110.852L138.99 111.041L140.501 111.796L142.389 112.552L143.711 112.93L145.317 113.307L147.583 113.59H150.038L152.304 113.307L154.948 112.646L157.308 111.702L158.913 110.852H159.102L160.141 113.118L163.162 119.728L164.673 123.127L165.995 125.96L167.695 129.737L169.205 133.042L170.433 135.78L172.133 139.462L173.549 142.578L174.588 144.939L175.249 146.45L174.965 146.544H122.466V146.166L124.071 142.673L125.11 140.407L125.96 138.518L127.282 135.591L128.698 132.475L129.737 130.114L131.72 125.865L134.269 120.2L135.497 117.556L136.346 115.668L137.857 112.363L138.518 110.852Z" fill="#EA4859"/>
<path d="M99.4271 154.853H177.515L177.609 154.948V166.939L177.515 167.034H99.4271V154.853Z" fill="#EA4859"/>
<path d="M114.912 37.4858L115.29 37.8635L116.234 39.091L117.084 40.0352L117.84 40.9794L118.973 42.3014L119.822 43.34L120.861 44.5675L121.616 45.5117L122.655 46.7392L123.505 47.7779L124.544 49.0054L125.393 50.044L126.432 51.2715L127.282 52.3102L128.32 53.5377L129.17 54.5763L130.209 55.8038L131.059 56.8425L132.097 58.07L132.947 59.1086L134.08 60.4305L134.93 61.4692L136.252 63.0744L137.291 64.3019L138.14 65.3405L139.274 66.6624L140.123 67.7011L141.162 68.9286L141.917 69.8728L143.05 71.1947L143.9 72.2334L144.372 72.7999V72.9887L142.389 73.5553L140.501 74.3107L138.329 75.4437L136.913 76.388L135.402 77.6155L134.458 78.4653L133.608 79.4095L133.23 79.3151L132.003 77.7099L131.059 76.4824L129.737 74.7828L128.604 73.3664L127.66 72.1389L126.338 70.4393L125.393 69.2118L124.26 67.7955L123.033 66.1903L121.711 64.4907L120.483 62.8855L119.35 61.4692L117.462 59.0142L116.423 57.6923L115.101 55.9927L113.874 54.3875L112.741 52.9711L111.891 51.8381L110.758 50.4217L109.342 48.5333L108.397 47.4002L108.586 47.0225L110.097 45.6062L111.041 44.5675L112.363 42.7735L113.496 40.885L114.535 38.5245L114.912 37.4858Z" fill="#EA4859"/>
<path d="M94.4227 19.0734L96.5 19.1678L98.0108 19.4511L99.7104 20.0176L101.127 20.773L102.354 21.6228L103.582 22.6614L104.432 23.6057L105.47 25.1164L106.226 26.6272L106.698 27.8547L107.17 30.2153V32.5758L106.887 34.181L106.414 35.6918L105.753 37.2025L104.998 38.43L104.148 39.4687L103.298 40.4129L102.165 41.3571L100.938 42.1125L99.4271 42.8679L97.5387 43.4344L95.6502 43.7177H93.8562L92.0621 43.4344L90.0793 42.7735L88.2852 41.8293L87.2466 41.0739L86.3024 40.2241L85.6414 39.5631L84.6027 38.2412L83.7529 36.7304L83.1864 35.3141L82.8087 33.9922L82.6199 33.0479V29.8376L82.9976 28.0435L83.6585 26.2495L84.5083 24.7387L85.4526 23.4168L86.8689 22.0005L88.002 21.1507L89.6072 20.2065L91.4012 19.5455L93.1952 19.1678L94.4227 19.0734Z" fill="#EA4859"/>
<path d="M147.394 80.8258H150.321L152.209 81.2035L153.72 81.7701L155.042 82.431L156.364 83.3752L157.686 84.5083V84.6972H157.875L158.725 85.7358L159.574 87.0577L160.33 88.6629L160.896 90.6458L161.085 91.6844V94.4227L160.707 96.3112L160.046 98.1996L159.102 99.8992L158.064 101.221L156.647 102.637L155.136 103.676L153.626 104.432L151.926 104.998L150.604 105.281L149.849 105.376H147.772L145.977 105.092L144.467 104.62L143.334 104.148L141.634 103.11L140.407 102.071L139.368 101.032L138.329 99.616L137.574 98.1996L136.913 96.4056L136.535 94.5171L136.441 92.9119L136.63 91.1179L137.007 89.5127L137.574 88.002L138.329 86.5856L139.273 85.2637L140.407 84.0362L141.728 82.9976L142.767 82.3366L144.278 81.5812L146.166 81.0147L147.394 80.8258Z" fill="#EA4859"/>
<path d="M74.9716 35.5974H75.1605L76.0103 38.3356L76.8601 40.3185L77.7099 41.9237L78.4653 43.0567L79.4095 44.2842L80.2593 45.3229L81.1091 46.1727L81.2035 46.456L78.5597 47.8723L76.2935 49.1942L74.3107 50.2329L70.2505 52.499L66.1903 54.7652L59.203 58.6365L56.8425 59.9584L52.4046 62.4134L51.4604 62.9799L51.0827 62.8855L50.3273 61.9413L49.0998 60.6194L48.0611 59.7696L46.5504 58.6365V58.3532L47.8723 57.409L49.4775 56.0871L50.9883 54.8596L52.8767 53.3488L55.5205 51.2715L57.0313 50.044L58.3532 49.0054L59.9584 47.6835L60.9026 46.9281L62.2246 45.8894L63.7353 44.6619L65.0572 43.6233L66.568 42.3958L67.8899 41.3571L68.8341 40.6018L70.3449 39.3743L71.6668 38.3356L73.1776 37.1081L74.1218 36.3527L74.9716 35.5974Z" fill="#EA4859"/>
<path d="M37.2026 64.3018H38.2412L39.9408 64.5851L41.4516 65.1517L42.7735 66.0015L43.7177 66.8513L44.662 67.9843L45.4173 69.4951L45.795 70.6282L45.9839 71.8557V73.0832L45.7006 74.6883L45.3229 75.727L44.5675 77.1433L43.7177 78.182L43.0568 78.8429L42.1125 79.5039L40.7906 80.1649L39.5631 80.5426L38.3356 80.7314H37.0137L35.503 80.4481L34.2755 79.976L32.8591 79.1262L31.6316 77.9931L30.6874 76.6712L30.0264 75.2549L29.6487 73.933L29.5543 73.1776V71.9501L29.8376 70.3449L30.4041 68.9286L30.9707 67.8899L32.1037 66.568L32.8591 65.907L34.2755 65.0572L35.5974 64.5851L37.2026 64.3018Z" fill="#EA4859"/>
<path d="M33.7089 89.0406H41.8292L41.9237 89.3239V109.341L41.7348 109.53H33.7089V89.0406Z" fill="#EA4859"/>
</g>
<defs>
<clipPath id="clip0_29_10">
<rect width="193" height="193" fill="white"/>
</clipPath>
</defs>
</svg>
