<svg width="334" height="334" viewBox="0 0 334 334" fill="none" xmlns="http://www.w3.org/2000/svg">
<path d="M113.182 26.9092H116.77L119.216 27.3984L121.173 28.2139L123.619 29.6816L125.739 31.6387L127.37 33.9219L128.512 36.5312L129.164 39.1406V42.8916L128.512 45.501L127.533 47.9473L126.718 49.415L130.306 53.0029V53.3291L130.958 53.6553L133.567 56.2646V56.5908L134.22 56.917L143.679 66.376V66.7021L144.331 67.0283L150.039 72.7363L150.528 73.5518V92.4697H164.228L164.064 55.123L160.803 53.9814L158.52 52.5137L156.889 51.0459L155.747 49.9043L154.605 48.1104L153.627 46.1533L152.975 44.0332L152.812 43.0547V38.9775L153.301 36.8574L154.605 33.9219L156.236 31.6387L157.704 30.1709L159.824 28.7031L162.107 27.5615L164.064 27.0723L165.369 26.9092H168.631L171.24 27.3984L173.197 28.2139L175.154 29.3555L176.948 30.8232L178.253 32.291L179.721 34.5742L180.862 37.5098L181.188 39.4668V42.5654L180.699 45.1748L179.721 47.6211L178.579 49.415L176.785 51.3721L175.317 52.6768L172.708 54.1445L170.262 54.96H169.772V92.3066H183.309L183.472 73.3887L184.939 71.7578L207.282 49.415L205.978 46.9688L204.999 44.0332L204.673 41.9131V40.2822L205.162 37.3467L206.304 34.5742L207.771 32.291L209.239 30.6602L211.033 29.1924L212.99 28.0508L215.273 27.2354L217.23 26.9092H220.818L223.265 27.3984L225.222 28.2139L227.668 29.6816L229.625 31.6387L230.767 32.9434L231.908 34.9004L232.887 37.6729L233.213 39.4668V42.2393L232.724 45.1748L231.419 48.1104L229.951 50.2305L227.994 52.1875L225.711 53.6553L223.754 54.4707L221.308 55.123L220.166 55.2861H217.72L215.11 54.7969L213.153 54.1445L211.849 53.4922L211.196 53.3291L210.87 53.9814L190.484 74.3672L189.669 75.0195L189.343 75.5088L189.18 80.2383L189.017 92.4697L201.085 92.3066L201.9 91.8174L202.39 91.165H202.716L202.879 90.6758H203.205L203.531 90.0234L207.935 85.6201H208.261L208.424 85.1309L214.621 78.9336H214.947L215.273 78.2812L216.578 77.1396L216.904 76.6504H217.23L217.394 76.1611H217.72L218.046 75.5088L219.351 74.3672L220.166 73.3887L220.818 72.7363H221.145L221.471 72.084L224.08 69.4746H224.406L224.732 68.8223L225.548 68.1699H280.834L281.323 66.0498L282.628 63.4404L284.422 61.1572L286.216 59.5264L288.662 58.0586L290.293 57.4062L292.576 56.917H296.816L299.589 57.5693L302.198 58.874L303.992 60.1787L305.786 61.9727L307.254 64.2559L308.069 65.8867L308.722 68.333L308.885 69.3115V72.7363L308.232 75.6719L307.417 77.6289L306.112 79.5859L304.808 81.2168L303.177 82.5215L301.057 83.8262L298.937 84.6416L296.653 85.1309H292.739L290.456 84.6416L288.336 83.8262L286.053 82.3584L284.096 80.5645L282.791 78.9336L281.486 76.4873L280.834 74.041H227.505L226.689 74.8564L225.385 76.3242L224.08 77.4658L221.145 80.4014L220.492 81.2168L213.153 88.5557L211.522 90.0234L210.381 91.3281L209.565 91.9805V92.3066H216.415L221.471 92.4697L223.917 92.7959L227.831 94.1006L229.788 95.0791L231.582 96.2207L233.702 98.0146L235.17 99.4824L236.801 101.603L238.269 104.049L239.247 106.332L239.899 108.615L240.389 111.877V147.267L241.204 146.614L242.346 145.31L242.835 145.146L242.998 144.657H243.324L243.65 144.005L245.771 141.885H246.097L246.423 141.232L246.912 140.743H247.238L247.564 140.091L256.86 130.795L258.165 129.653L259.144 128.512L260.448 127.37L262.731 124.924L265.83 121.825L266.319 121.499H280.834L280.997 120.357L281.649 118.563L282.791 116.443L284.096 114.812L285.89 113.019L288.499 111.388L290.782 110.572L293.555 110.083H296.001L298.773 110.572L301.22 111.551L303.503 113.019L305.134 114.486L306.438 116.117L307.906 118.727L308.722 121.499L308.885 122.478V126.065L308.069 129.49L306.602 132.263L304.645 134.546L303.177 135.851L300.567 137.318L298.121 138.134L296.164 138.46H293.065L290.619 137.971L288.499 137.155L286.053 135.688L284.259 134.057L282.791 132.1L281.649 130.143L280.671 127.207H268.766L267.461 128.349L240.552 155.258L240.389 163.086L280.671 162.923L281.649 160.15L283.117 157.541L284.911 155.421L286.868 153.953L288.825 152.812L291.271 151.996L292.902 151.67H296.49L299.263 152.322L301.546 153.301L303.503 154.605L305.297 156.236L306.765 158.193L308.069 160.803L308.722 163.086L308.885 164.064V167.815L308.232 170.588L306.928 173.197L305.949 174.665L304.318 176.459L302.688 177.764L300.078 179.068L297.958 179.721L295.512 180.047H293.718L291.435 179.721L289.314 179.068L287.031 177.927L285.563 176.785L283.606 174.828L281.976 172.382L280.997 169.772L280.671 168.794L240.389 168.631L240.552 176.459L241.204 177.274L242.509 178.416L268.439 204.347L268.766 204.51H280.671L281.649 201.737L283.117 199.128L284.911 197.171L285.727 196.355L287.357 195.214L289.641 194.072L291.761 193.42L292.739 193.257H296.816L299.263 193.909L301.22 194.725L302.851 195.703L304.481 197.008L306.112 198.802L307.417 200.922L308.069 202.227L308.722 204.51L308.885 205.651V209.239L308.232 212.175L306.928 214.784L305.623 216.578L304.155 218.209L302.035 219.677L299.263 220.981L297.143 221.471L295.838 221.634H293.555L291.271 221.308L288.988 220.492L286.542 219.188L284.422 217.23L283.28 215.926L281.976 213.806L281.16 211.849L280.834 210.381L266.319 210.218L265.015 209.076L240.552 184.613L240.389 219.84L240.062 222.286L239.247 225.385L238.105 227.994L237.127 229.625L235.822 231.419L234.354 233.05L232.397 234.844L230.767 235.985L228.157 237.453L224.243 238.758L221.96 239.247L211.196 239.41L209.239 239.247L224.243 254.251V254.577L224.896 254.903L227.831 257.839H280.671L281.649 254.903L283.117 252.457L284.422 250.826L286.216 249.195L288.336 247.891L290.945 246.912L293.229 246.423H296.327L299.1 247.075L301.709 248.217L303.992 249.848L304.808 250.5L306.275 252.294L307.743 254.74L308.559 257.187L308.885 258.817V262.405L308.069 265.83L306.928 268.113L305.46 270.07L303.992 271.538L302.035 273.006L299.915 273.984L297.795 274.637L296.653 274.8H292.576L290.293 274.311L287.684 273.169L285.89 271.864L284.259 270.396L282.954 268.766L281.649 266.482L280.671 263.547L225.222 263.384L201.9 240.062L201.411 239.41H189.18V255.882L189.669 256.697L209.729 276.757L211.522 278.388L214.132 277.246L216.252 276.594L217.394 276.431H220.655L223.102 276.92L225.711 278.062L227.505 279.203L229.136 280.671L230.604 282.302L231.908 284.585L232.724 286.542L233.213 289.314V292.25L232.724 294.696L231.582 297.469L230.114 299.589L228.483 301.383L226.689 302.688L224.08 303.992L222.612 304.481L220.818 304.808H216.904L214.295 304.155L211.522 302.851L209.565 301.383L208.261 300.078L206.63 297.795L205.488 295.349L204.836 292.739L204.673 290.619L204.999 287.684L205.814 285.237L207.282 282.302L183.635 258.654L183.472 258.328L183.309 239.41L169.772 239.247V280.997L171.566 281.323L174.339 282.628L176.296 284.096L178.09 285.89L179.558 288.173L180.699 290.782L181.188 293.229V296.653L180.699 298.937L179.558 301.709L178.579 303.177L177.111 304.971L175.807 306.112L174.176 307.254L172.056 308.232L168.631 309.048H165.206L162.923 308.559L160.803 307.743L158.52 306.438L156.073 304.155L154.605 302.035L153.301 299.1L152.812 296.816V292.739L153.301 290.619L154.442 288.173L155.421 286.542L156.726 284.911H157.052V284.585L158.683 283.28L160.803 281.976L162.434 281.323L164.228 280.997V239.247H150.528V258.165L149.061 259.959L127.044 281.976H126.718L126.881 282.791L127.859 284.422L128.838 287.194L129.164 288.662V292.576L128.512 295.186L127.37 297.795L125.413 300.404L124.271 301.546L122.151 303.014L119.542 304.155L117.748 304.645L116.77 304.808H112.855L110.246 304.155L107.474 302.851L105.354 301.22L104.212 300.078L102.744 297.958L101.603 295.675L100.95 293.555L100.787 292.739V288.825L101.276 286.379L102.907 282.954L104.212 281.323L106.169 279.366L108.289 278.062L109.594 277.409L112.203 276.594L113.182 276.431H116.77L119.542 277.083L121.336 277.898L122.478 278.388L123.619 277.409L124.761 276.104L125.413 275.778V275.452H125.739L126.065 274.8L126.718 274.147H127.044V273.821L141.232 259.633L142.374 258.654L143.189 257.676L144.494 256.534L144.657 256.208L144.82 239.247L132.752 239.41L131.447 240.552L128.838 243.161L127.37 244.792L125.413 246.749H125.087L124.761 247.401L123.782 248.38H123.456L123.13 249.032L121.825 250.174L121.173 250.989L119.868 252.131L115.465 256.534L113.997 258.165L113.019 258.98L111.877 260.285L109.268 262.731L108.615 263.384H53.166L52.8398 265.015L52.0244 266.972L51.0459 268.766L49.0889 271.049L46.9688 272.68L44.3594 273.984L42.2393 274.637L41.2607 274.8H37.0205L35.3896 274.474L32.6172 273.332L30.8232 272.19L28.8662 270.396L27.7246 269.092L26.4199 266.972L25.7676 265.341L25.1152 262.731V258.654L25.7676 255.882L27.0723 253.272L28.2139 251.642L29.6816 250.011L31.9648 248.38L34.4111 247.238L36.6943 246.586L37.6729 246.423H40.7715L43.0547 246.912L45.6641 247.891L47.9473 249.358L49.9043 251.152L51.3721 253.109L52.5137 255.393L53.3291 257.839H106.006L107.311 256.697L124.435 239.573L124.598 239.247H111.714L108.452 238.432L105.843 237.453L102.581 235.659L100.298 233.702L98.5039 231.908L96.3838 228.973L94.916 225.874L94.1006 223.265L93.6113 220.492V184.613L92.7959 185.103L91.4912 186.57H91.165L91.002 187.06H90.6758L90.5127 187.549L89.5342 188.364L88.7188 189.343H88.3926L88.2295 189.832H87.9033L87.5771 190.484L86.2725 191.626L85.1309 192.931L79.2598 198.802H78.9336L78.7705 199.291L77.4658 200.433L76.6504 201.411L75.6719 202.227L74.8564 203.205L74.041 203.857L73.2256 204.836L69.8008 208.261H69.4746L69.3115 208.75L68.8223 209.239H68.4961L68.1699 209.892L67.5176 210.218L53.166 210.381L52.6768 212.338L51.3721 214.947L49.9043 216.904L48.2734 218.535L46.4795 219.677L43.707 220.981L41.75 221.471L40.2822 221.634H37.8359L35.2266 221.145L33.1064 220.329L31.1494 219.188L29.3555 217.72L27.8877 216.089L26.583 213.969L25.9307 212.664L25.2783 210.381L25.1152 209.565V205.325L25.7676 202.716L26.4199 201.085L27.5615 199.291L28.8662 197.66L30.1709 196.355L32.6172 194.725L35.7158 193.583L37.1836 193.257H41.2607L43.8701 193.909L46.1533 194.888L48.4365 196.519L50.2305 198.312L51.6982 200.433L52.8398 203.042L53.3291 204.51H65.7236L66.0498 203.857L93.2852 176.622L93.4482 176.296L93.6113 168.631L53.166 168.794L52.5137 171.24L51.3721 173.36L49.9043 175.317L48.2734 176.948L46.6426 178.09L44.1963 179.231L41.5869 179.884L39.9561 180.047H38.3252L35.8789 179.721L33.4326 178.905L31.3125 177.764L29.5186 176.296L28.377 175.154L26.9092 173.034L25.9307 171.077L25.2783 168.794L25.1152 167.979V163.738L25.7676 161.129L26.4199 159.661L27.7246 157.378L29.6816 155.258L31.3125 153.953L33.7588 152.648L36.5312 151.833L37.5098 151.67H40.9346L43.8701 152.322L46.4795 153.627L48.2734 154.769L50.3936 156.889L52.0244 159.498L52.8398 161.618L53.166 163.086H93.6113L93.4482 155.421L92.3066 154.116L65.5605 127.37L65.2344 127.207H53.166L52.5137 129.653L51.209 132.1L49.7412 133.894L48.4365 135.198L46.3164 136.666L44.3594 137.645L41.75 138.297L40.7715 138.46H37.6729L35.0635 137.971L32.6172 136.992L30.8232 135.851L29.1924 134.383L27.7246 132.752L26.0938 129.979L25.2783 127.207L25.1152 126.392V122.314L25.7676 119.542L26.4199 118.074L27.5615 116.117L28.8662 114.486L30.0078 113.345L31.6387 112.203L34.248 110.898L36.6943 110.246L37.999 110.083H40.4453L43.2178 110.572L45.3379 111.388L47.2949 112.529L48.9258 113.834L50.2305 115.139L51.8613 117.585L52.8398 119.868L53.166 121.499H67.5176L68.8223 122.641L91.165 144.983L92.3066 145.962V146.288H92.6328L93.2852 147.104L93.6113 147.267V111.062L94.4268 106.984L95.8945 103.723L96.71 102.255L98.0146 100.461L99.1562 99.1562L100.95 97.3623L102.581 96.0576L105.354 94.4268L107.8 93.4482L110.409 92.6328L112.529 92.4697L123.456 92.3066H124.435L123.456 91.165L121.01 88.7188L120.357 87.9033L119.379 87.0879L118.727 86.2725L117.422 85.1309L114.812 82.5215L113.671 81.2168L106.658 74.2041L106.332 74.041L53.0029 73.8779L52.8398 75.3457L52.0244 77.4658L50.8828 79.2598L49.415 81.0537L47.7842 82.5215L45.1748 83.9893L43.3809 84.6416L41.0977 85.1309H37.1836L34.4111 84.4785L32.6172 83.6631L30.9863 82.6846L28.8662 80.8906L27.2354 78.7705L25.9307 76.3242L25.2783 74.041L25.1152 73.0625V68.9854L25.7676 66.376L26.4199 64.7451L27.7246 62.625L29.1924 60.9941L30.334 59.8525L32.6172 58.3848L34.4111 57.5693L37.1836 56.917H41.2607L44.1963 57.5693L46.6426 58.874L48.2734 60.0156L49.7412 61.3203L51.209 63.2773L52.5137 65.7236L53.166 67.8438V68.1699H108.126L109.268 68.8223L124.924 84.4785L126.065 85.7832L127.207 86.9248L127.696 87.251V87.5771L128.349 87.9033L130.469 90.0234L131.61 91.3281L132.589 92.3066H144.657V75.3457L142.7 73.5518L122.641 53.4922L121.662 53.6553L119.868 54.4707L117.259 55.123L116.28 55.2861H113.508L111.062 54.7969L108.452 53.8184L106.006 52.1875L104.701 51.0459L103.07 48.9258L101.603 46.1533L100.95 43.8701L100.787 42.8916V39.1406L101.439 36.5312L102.418 34.248L103.56 32.4541L105.19 30.6602L106.984 29.1924L109.757 27.7246L112.04 27.0723L113.182 26.9092ZM113.508 32.4541L111.388 33.1064L109.594 34.248L107.963 35.8789L106.984 37.5098L106.332 39.793V42.4023L106.984 44.5225L108.126 46.4795L109.594 47.9473L111.551 49.0889L113.182 49.5781H116.606L118.727 48.9258L120.521 47.7842L121.825 46.4795L122.967 44.5225L123.619 41.9131V40.1191L122.967 37.6729L122.151 36.2051L120.684 34.5742L119.216 33.4326L117.259 32.6172L116.28 32.4541H113.508ZM165.532 32.4541L163.412 33.1064L161.781 34.085L160.477 35.2266L159.335 37.0205L158.52 38.9775L158.356 39.793V42.5654L159.172 44.8486L160.15 46.4795L161.455 47.7842L163.249 48.9258L165.369 49.5781L167 49.7412L169.283 49.415L171.077 48.7627L173.034 47.2949L174.339 45.8271L175.317 43.5439L175.644 42.0762V39.793L174.828 37.3467L173.85 35.7158L172.219 34.085L170.588 33.1064L168.468 32.4541H165.532ZM217.557 32.4541L215.437 33.1064L213.643 34.248L212.012 35.8789L211.196 37.3467L210.544 39.1406L210.381 39.9561V42.4023L211.033 44.5225L211.849 45.9902L213.316 47.6211L214.621 48.5996L216.578 49.415L217.23 49.5781H220.655L222.775 48.9258L224.569 47.7842L225.711 46.6426L227.016 44.5225L227.505 43.0547L227.668 42.0762V40.1191L227.179 37.999L226.2 36.2051L224.732 34.5742L223.428 33.5957L221.797 32.7803L220.166 32.4541H217.557ZM37.5098 62.4619L35.5527 63.1143L33.7588 64.2559L32.4541 65.5605L31.4756 67.0283L30.8232 68.8223L30.6602 69.6377V72.4102L31.1494 74.3672L32.1279 75.998L33.5957 77.6289L35.5527 78.9336L37.0205 79.4229L37.8359 79.5859H40.6084L42.5654 79.0967L44.5225 77.9551L45.6641 76.9766L46.8057 75.3457L47.6211 73.3887L47.7842 72.4102V69.4746L47.1318 67.3545L45.9902 65.5605L44.5225 64.0928L42.8916 63.1143L40.7715 62.4619H37.5098ZM293.065 62.4619L291.435 62.9512L289.478 64.0928L288.336 65.0713L287.194 66.7021L286.542 68.0068L286.216 69.3115L286.053 71.2686L286.379 73.5518L287.684 76.1611L288.988 77.6289L291.108 78.9336L292.413 79.4229L293.392 79.5859H296.164L297.958 79.0967L299.589 78.2812L301.383 76.6504L302.361 75.1826L303.014 73.7148L303.34 71.9209V69.9639L302.851 67.8438L301.872 66.0498L300.241 64.2559L298.447 63.1143L297.143 62.625L296.164 62.4619H293.065ZM112.529 98.0146L110.572 98.5039L108.126 99.3193L106.332 100.298L104.864 101.439L103.233 102.907L101.766 104.701L100.298 107.311L99.6455 109.268L99.1562 111.551L98.9932 113.019V218.861L99.6455 222.286L100.461 224.732L101.766 227.016L103.56 229.136L105.19 230.604L107.474 232.071L109.92 233.05L110.898 233.376L112.529 233.702H221.145L224.243 233.05L226.853 231.908L228.81 230.604L229.788 229.788V229.462L230.44 229.136L231.745 227.668L233.376 225.059L234.191 222.775L234.844 219.84L235.007 217.394V115.302L234.844 111.714L234.191 108.778L233.213 106.332L232.071 104.538L229.951 102.092L227.831 100.461L225.548 99.1562L223.102 98.3408L221.145 98.0146H112.529ZM38.6514 115.628L36.2051 116.117L34.5742 116.933L32.9434 118.237L31.6387 120.031L30.9863 121.499L30.6602 123.13V125.739L31.3125 127.859L32.291 129.49L33.5957 130.958L35.7158 132.263L37.1836 132.752L37.999 132.915H40.4453L42.4023 132.426L44.1963 131.447L45.8271 129.979L46.9688 128.349L47.6211 126.555L47.7842 125.739V122.641L47.1318 120.521L45.8271 118.563L44.1963 117.096L42.2393 116.117L39.9561 115.628H38.6514ZM294.207 115.628L291.598 116.117L289.804 117.096L288.173 118.563L287.031 120.194L286.379 121.825L286.053 123.782L286.216 126.065L286.868 128.022L288.01 129.816L289.478 131.284L292.087 132.589L293.555 132.915H296.001L297.958 132.426L299.915 131.284L301.22 130.143L302.688 127.859L303.177 126.392L303.34 125.413V123.456L303.014 121.499L302.035 119.542L300.567 117.911L299.589 117.096L297.795 116.117L295.349 115.628H294.207ZM38.4883 157.215L36.2051 157.704L34.248 158.683L32.7803 159.987L31.3125 162.271L30.8232 163.575L30.6602 164.391V167.489L31.3125 169.609L32.4541 171.24L33.4326 172.382L35.2266 173.523L36.5312 174.176L37.999 174.502H40.6084L42.7285 173.85L44.8486 172.545L46.3164 170.914L47.2949 169.283L47.7842 167.489V164.228L47.1318 162.107L45.8271 160.15L44.1963 158.683L42.2393 157.704L40.1191 157.215H38.4883ZM294.044 157.215L291.598 157.704L289.804 158.683L287.847 160.477L286.542 162.76L286.053 165.369L286.216 167.815L286.868 169.609L288.01 171.403L289.314 172.708L291.598 174.013L293.555 174.502H296.001L297.795 174.013L299.589 173.034L301.22 171.566L302.361 170.099L303.014 168.631L303.34 167V164.554L302.851 162.597L301.709 160.64L300.73 159.498L298.937 158.193L297.143 157.541L295.512 157.215H294.044ZM37.8359 198.802L35.7158 199.454L34.085 200.433L32.6172 201.737L31.4756 203.531L30.8232 205.325L30.6602 206.141V208.913L31.3125 211.033L32.7803 213.316L34.5742 214.784L36.6943 215.763L38.3252 216.089H40.2822L42.2393 215.6L44.3594 214.458L45.8271 213.153L47.2949 210.87L47.7842 209.076L47.9473 207.445L47.6211 204.999L46.9688 203.368L45.6641 201.574L44.1963 200.27L42.2393 199.291L40.2822 198.802H37.8359ZM293.392 198.802L291.271 199.454L289.314 200.596L288.01 201.9L286.868 203.694L286.216 205.651L286.053 207.935L286.379 209.892L287.031 211.522L288.336 213.316L289.641 214.458L291.108 215.273L292.576 215.926L293.881 216.089H295.675L297.306 215.763L299.589 214.621L300.894 213.643L301.872 212.338L302.851 210.707L303.34 208.424V206.304L302.851 204.184L301.709 202.227L300.567 200.922L298.773 199.78L296.816 198.965L296.001 198.802H293.392ZM38.6514 251.968L36.8574 252.294L34.9004 253.109L33.2695 254.414L32.1279 255.719L31.3125 257.023L30.6602 259.144V262.242L31.3125 264.362L32.291 265.83L33.7588 267.461L35.3896 268.439L36.8574 269.092L38.9775 269.418L41.0977 269.255L42.8916 268.603L44.6855 267.461L45.6641 266.646L47.1318 264.362L47.7842 262.242L47.9473 260.611L47.6211 258.328L46.8057 256.371L45.501 254.577L43.8701 253.272L42.0762 252.457L39.9561 251.968H38.6514ZM294.044 251.968L292.25 252.294L289.641 253.599L288.173 254.903L286.868 256.86L286.216 258.98L286.053 260.122V261.427L286.542 263.71L287.684 265.83L288.825 267.135L291.108 268.603L293.065 269.255L295.186 269.418L297.143 269.092L299.752 267.787L301.383 266.319L302.524 264.525L303.177 262.731L303.34 261.753V259.796L302.851 257.513L301.872 255.719L300.241 253.925L298.773 252.946L296.49 252.131L295.512 251.968H294.044ZM114.16 281.976L111.551 282.628L109.594 283.77L108.289 285.074L106.984 287.194L106.495 288.662L106.332 289.478V291.924L106.984 294.207L107.963 295.838L108.778 296.816L110.572 298.121L112.692 299.1L113.345 299.263H116.443L118.4 298.61L120.194 297.632L121.01 296.979L122.314 295.349L123.13 293.555L123.456 292.576L123.619 291.435V289.804L122.967 287.194L121.825 285.237L120.357 283.77L118.563 282.791L116.77 282.139L115.791 281.976H114.16ZM218.209 281.976L216.415 282.302L214.132 283.443L212.501 284.911L211.359 286.542L210.544 288.662L210.381 289.478V291.924L211.033 294.207L212.175 296.001L213.153 297.143L214.458 298.121L216.904 299.1L217.557 299.263H220.655L222.449 298.61L224.243 297.632L226.037 295.838L227.179 293.555L227.668 291.598V289.804L227.342 288.173L226.689 286.705L225.548 284.911L224.406 283.77L223.102 282.954L220.818 282.139L219.677 281.976H218.209ZM166.185 286.216L163.901 286.705L162.107 287.684L160.477 289.151L159.335 290.782L158.52 292.739L158.356 293.392V296.327L159.172 298.773L160.477 300.73L161.944 302.035L163.901 303.014L165.858 303.503H167.489L170.099 303.014L171.729 302.198L173.197 301.057L174.502 299.263L175.317 297.306L175.644 295.838V293.718L174.828 291.108L173.687 289.314L172.545 288.173L170.425 286.868L168.957 286.379L167.652 286.216H166.185Z" fill="white"/>
<path d="M146.451 127.37H158.52L159.172 129.001L162.434 138.623L163.738 142.374L168.468 156.236L170.588 162.434L175.154 175.807L178.416 185.429L180.699 192.115L183.635 200.596L184.613 203.531L184.776 204.347H174.339L173.85 203.531L171.403 196.519L168.957 189.18L166.511 182.167L165.858 180.373L138.623 180.21L138.297 181.678L134.383 193.42L131.773 201.411L130.795 204.184L130.632 204.347H120.521L120.847 202.879L122.804 197.008L126.229 186.896L128.512 180.21L131.773 170.588L134.057 163.901L137.645 153.301L139.928 146.614L143.026 137.481L145.636 129.816L146.451 127.37Z" fill="white"/>
<path d="M196.029 127.37H206.141V204.184L205.978 204.347H196.029V127.37Z" fill="white"/>
<path d="M114.649 233.865H217.72L217.883 234.191L217.557 234.354H192.115H191.626L190.321 234.191L189.18 234.354V234.028L188.527 234.354L187.712 234.191L187.386 234.354H171.893L171.24 234.191L170.099 234.354H165.858L165.369 234.191L165.043 234.354H147.43H146.777H141.885H141.232L140.417 234.028L140.254 234.354H137.971L137.808 234.191V234.354H136.666L136.503 234.191H135.688L135.035 234.354H134.872H116.933L114.649 234.028V233.865Z" fill="white"/>
<path d="M153 132L164.258 171H141.742L153 132Z" fill="#E41B2F"/>
</svg>
