<?xml version="1.0" standalone="no"?>
<svg xmlns:xlink="http://www.w3.org/1999/xlink" id="wave" style="transform:rotate(180deg); transition: 0.3s" viewBox="0 0 1440 150" version="1.1" xmlns="http://www.w3.org/2000/svg"><defs><linearGradient id="sw-gradient-0" x1="0" x2="0" y1="1" y2="0"><stop stop-color="rgba(228, 27, 47, 1)" offset="0%"/><stop stop-color="rgba(228, 27, 47, 1)" offset="100%"/></linearGradient></defs><path style="transform:translate(0, 0px); opacity:1" fill="url(#sw-gradient-0)" d="M0,75L34.3,62.5C68.6,50,137,25,206,20C274.3,15,343,30,411,40C480,50,549,55,617,47.5C685.7,40,754,20,823,12.5C891.4,5,960,10,1029,15C1097.1,20,1166,25,1234,32.5C1302.9,40,1371,50,1440,62.5C1508.6,75,1577,90,1646,100C1714.3,110,1783,115,1851,117.5C1920,120,1989,120,2057,105C2125.7,90,2194,60,2263,55C2331.4,50,2400,70,2469,77.5C2537.1,85,2606,80,2674,67.5C2742.9,55,2811,35,2880,45C2948.6,55,3017,95,3086,105C3154.3,115,3223,95,3291,90C3360,85,3429,95,3497,87.5C3565.7,80,3634,55,3703,45C3771.4,35,3840,40,3909,40C3977.1,40,4046,35,4114,42.5C4182.9,50,4251,70,4320,82.5C4388.6,95,4457,100,4526,95C4594.3,90,4663,75,4731,70C4800,65,4869,70,4903,72.5L4937.1,75L4937.1,150L4902.9,150C4868.6,150,4800,150,4731,150C4662.9,150,4594,150,4526,150C4457.1,150,4389,150,4320,150C4251.4,150,4183,150,4114,150C4045.7,150,3977,150,3909,150C3840,150,3771,150,3703,150C3634.3,150,3566,150,3497,150C3428.6,150,3360,150,3291,150C3222.9,150,3154,150,3086,150C3017.1,150,2949,150,2880,150C2811.4,150,2743,150,2674,150C2605.7,150,2537,150,2469,150C2400,150,2331,150,2263,150C2194.3,150,2126,150,2057,150C1988.6,150,1920,150,1851,150C1782.9,150,1714,150,1646,150C1577.1,150,1509,150,1440,150C1371.4,150,1303,150,1234,150C1165.7,150,1097,150,1029,150C960,150,891,150,823,150C754.3,150,686,150,617,150C548.6,150,480,150,411,150C342.9,150,274,150,206,150C137.1,150,69,150,34,150L0,150Z"/></svg>