<?xml version="1.0" standalone="no"?>
<svg xmlns:xlink="http://www.w3.org/1999/xlink" id="wave" style="transform:rotate(180deg); transition: 0.3s" viewBox="0 0 1440 290" version="1.1" xmlns="http://www.w3.org/2000/svg"><defs><linearGradient id="sw-gradient-0" x1="0" x2="0" y1="1" y2="0"><stop stop-color="rgba(212, 229, 252, 1)" offset="0%"/><stop stop-color="rgba(212, 229, 252, 1)" offset="100%"/></linearGradient></defs><path style="transform:translate(0, 0px); opacity:1" fill="url(#sw-gradient-0)" d="M0,0L34.3,4.8C68.6,10,137,19,206,48.3C274.3,77,343,126,411,120.8C480,116,549,58,617,38.7C685.7,19,754,39,823,67.7C891.4,97,960,135,1029,130.5C1097.1,126,1166,77,1234,53.2C1302.9,29,1371,29,1440,38.7C1508.6,48,1577,68,1646,106.3C1714.3,145,1783,203,1851,188.5C1920,174,1989,87,2057,87C2125.7,87,2194,174,2263,193.3C2331.4,213,2400,164,2469,130.5C2537.1,97,2606,77,2674,91.8C2742.9,106,2811,155,2880,154.7C2948.6,155,3017,106,3086,106.3C3154.3,106,3223,155,3291,183.7C3360,213,3429,222,3497,193.3C3565.7,164,3634,97,3703,67.7C3771.4,39,3840,48,3909,43.5C3977.1,39,4046,19,4114,14.5C4182.9,10,4251,19,4320,43.5C4388.6,68,4457,106,4526,101.5C4594.3,97,4663,48,4731,29C4800,10,4869,19,4903,24.2L4937.1,29L4937.1,290L4902.9,290C4868.6,290,4800,290,4731,290C4662.9,290,4594,290,4526,290C4457.1,290,4389,290,4320,290C4251.4,290,4183,290,4114,290C4045.7,290,3977,290,3909,290C3840,290,3771,290,3703,290C3634.3,290,3566,290,3497,290C3428.6,290,3360,290,3291,290C3222.9,290,3154,290,3086,290C3017.1,290,2949,290,2880,290C2811.4,290,2743,290,2674,290C2605.7,290,2537,290,2469,290C2400,290,2331,290,2263,290C2194.3,290,2126,290,2057,290C1988.6,290,1920,290,1851,290C1782.9,290,1714,290,1646,290C1577.1,290,1509,290,1440,290C1371.4,290,1303,290,1234,290C1165.7,290,1097,290,1029,290C960,290,891,290,823,290C754.3,290,686,290,617,290C548.6,290,480,290,411,290C342.9,290,274,290,206,290C137.1,290,69,290,34,290L0,290Z"/></svg>