<?xml version="1.0" standalone="no"?>
<svg xmlns:xlink="http://www.w3.org/1999/xlink" id="wave" style="transform:rotate(0deg); transition: 0.3s" viewBox="0 0 1440 180" version="1.1" xmlns="http://www.w3.org/2000/svg"><defs><linearGradient id="sw-gradient-0" x1="0" x2="0" y1="1" y2="0"><stop stop-color="rgba(212, 229, 252, 1)" offset="0%"/><stop stop-color="rgba(212, 229, 252, 1)" offset="100%"/></linearGradient></defs><path style="transform:translate(0, 0px); opacity:1" fill="url(#sw-gradient-0)" d="M0,54L30,48C60,42,120,30,180,27C240,24,300,30,360,48C420,66,480,96,540,117C600,138,660,150,720,147C780,144,840,126,900,99C960,72,1020,36,1080,45C1140,54,1200,108,1260,108C1320,108,1380,54,1440,30C1500,6,1560,12,1620,39C1680,66,1740,114,1800,117C1860,120,1920,78,1980,75C2040,72,2100,108,2160,120C2220,132,2280,120,2340,105C2400,90,2460,72,2520,78C2580,84,2640,114,2700,117C2760,120,2820,96,2880,81C2940,66,3000,60,3060,63C3120,66,3180,78,3240,87C3300,96,3360,102,3420,111C3480,120,3540,132,3600,138C3660,144,3720,144,3780,138C3840,132,3900,120,3960,114C4020,108,4080,108,4140,117C4200,126,4260,144,4290,153L4320,162L4320,180L4290,180C4260,180,4200,180,4140,180C4080,180,4020,180,3960,180C3900,180,3840,180,3780,180C3720,180,3660,180,3600,180C3540,180,3480,180,3420,180C3360,180,3300,180,3240,180C3180,180,3120,180,3060,180C3000,180,2940,180,2880,180C2820,180,2760,180,2700,180C2640,180,2580,180,2520,180C2460,180,2400,180,2340,180C2280,180,2220,180,2160,180C2100,180,2040,180,1980,180C1920,180,1860,180,1800,180C1740,180,1680,180,1620,180C1560,180,1500,180,1440,180C1380,180,1320,180,1260,180C1200,180,1140,180,1080,180C1020,180,960,180,900,180C840,180,780,180,720,180C660,180,600,180,540,180C480,180,420,180,360,180C300,180,240,180,180,180C120,180,60,180,30,180L0,180Z"/></svg>