<?xml version="1.0" standalone="no"?>
<svg xmlns:xlink="http://www.w3.org/1999/xlink" id="wave" style="transform:rotate(180deg); transition: 0.3s" viewBox="0 0 1440 170" version="1.1" xmlns="http://www.w3.org/2000/svg"><defs><linearGradient id="sw-gradient-0" x1="0" x2="0" y1="1" y2="0"><stop stop-color="rgba(212, 229, 252, 1)" offset="0%"/><stop stop-color="rgba(212, 229, 252, 1)" offset="100%"/></linearGradient></defs><path style="transform:translate(0, 0px); opacity:1" fill="url(#sw-gradient-0)" d="M0,51L48,62.3C96,74,192,96,288,90.7C384,85,480,51,576,34C672,17,768,17,864,31.2C960,45,1056,74,1152,73.7C1248,74,1344,45,1440,45.3C1536,45,1632,74,1728,73.7C1824,74,1920,45,2016,48.2C2112,51,2208,85,2304,99.2C2400,113,2496,108,2592,113.3C2688,119,2784,136,2880,121.8C2976,108,3072,62,3168,51C3264,40,3360,62,3456,82.2C3552,102,3648,119,3744,104.8C3840,91,3936,45,4032,28.3C4128,11,4224,23,4320,48.2C4416,74,4512,113,4608,116.2C4704,119,4800,85,4896,59.5C4992,34,5088,17,5184,14.2C5280,11,5376,23,5472,34C5568,45,5664,57,5760,76.5C5856,96,5952,125,6048,138.8C6144,153,6240,153,6336,138.8C6432,125,6528,96,6624,76.5C6720,57,6816,45,6864,39.7L6912,34L6912,170L6864,170C6816,170,6720,170,6624,170C6528,170,6432,170,6336,170C6240,170,6144,170,6048,170C5952,170,5856,170,5760,170C5664,170,5568,170,5472,170C5376,170,5280,170,5184,170C5088,170,4992,170,4896,170C4800,170,4704,170,4608,170C4512,170,4416,170,4320,170C4224,170,4128,170,4032,170C3936,170,3840,170,3744,170C3648,170,3552,170,3456,170C3360,170,3264,170,3168,170C3072,170,2976,170,2880,170C2784,170,2688,170,2592,170C2496,170,2400,170,2304,170C2208,170,2112,170,2016,170C1920,170,1824,170,1728,170C1632,170,1536,170,1440,170C1344,170,1248,170,1152,170C1056,170,960,170,864,170C768,170,672,170,576,170C480,170,384,170,288,170C192,170,96,170,48,170L0,170Z"/></svg>