<?xml version="1.0" standalone="no"?>
<svg xmlns:xlink="http://www.w3.org/1999/xlink" id="wave" style="transform:rotate(180deg); transition: 0.3s" viewBox="0 0 1440 170" version="1.1" xmlns="http://www.w3.org/2000/svg"><defs><linearGradient id="sw-gradient-0" x1="0" x2="0" y1="1" y2="0"><stop stop-color="rgba(212, 229, 252, 1)" offset="0%"/><stop stop-color="rgba(212, 229, 252, 1)" offset="100%"/></linearGradient></defs><path style="transform:translate(0, 0px); opacity:1" fill="url(#sw-gradient-0)" d="M0,119L34.3,99.2C68.6,79,137,40,206,25.5C274.3,11,343,23,411,39.7C480,57,549,79,617,73.7C685.7,68,754,34,823,39.7C891.4,45,960,91,1029,93.5C1097.1,96,1166,57,1234,56.7C1302.9,57,1371,96,1440,99.2C1508.6,102,1577,68,1646,45.3C1714.3,23,1783,11,1851,8.5C1920,6,1989,11,2057,19.8C2125.7,28,2194,40,2263,56.7C2331.4,74,2400,96,2469,104.8C2537.1,113,2606,108,2674,104.8C2742.9,102,2811,102,2880,104.8C2948.6,108,3017,113,3086,121.8C3154.3,130,3223,142,3291,144.5C3360,147,3429,142,3497,127.5C3565.7,113,3634,91,3703,87.8C3771.4,85,3840,102,3909,113.3C3977.1,125,4046,130,4114,133.2C4182.9,136,4251,136,4320,136C4388.6,136,4457,136,4526,119C4594.3,102,4663,68,4731,65.2C4800,62,4869,91,4903,104.8L4937.1,119L4937.1,170L4902.9,170C4868.6,170,4800,170,4731,170C4662.9,170,4594,170,4526,170C4457.1,170,4389,170,4320,170C4251.4,170,4183,170,4114,170C4045.7,170,3977,170,3909,170C3840,170,3771,170,3703,170C3634.3,170,3566,170,3497,170C3428.6,170,3360,170,3291,170C3222.9,170,3154,170,3086,170C3017.1,170,2949,170,2880,170C2811.4,170,2743,170,2674,170C2605.7,170,2537,170,2469,170C2400,170,2331,170,2263,170C2194.3,170,2126,170,2057,170C1988.6,170,1920,170,1851,170C1782.9,170,1714,170,1646,170C1577.1,170,1509,170,1440,170C1371.4,170,1303,170,1234,170C1165.7,170,1097,170,1029,170C960,170,891,170,823,170C754.3,170,686,170,617,170C548.6,170,480,170,411,170C342.9,170,274,170,206,170C137.1,170,69,170,34,170L0,170Z"/></svg>