<?xml version="1.0" standalone="no"?>
<svg xmlns:xlink="http://www.w3.org/1999/xlink" id="wave" style="transform:rotate(180deg); transition: 0.3s" viewBox="0 0 1440 230" version="1.1" xmlns="http://www.w3.org/2000/svg"><defs><linearGradient id="sw-gradient-0" x1="0" x2="0" y1="1" y2="0"><stop stop-color="rgba(228, 27, 47, 1)" offset="0%"/><stop stop-color="rgba(228, 27, 47, 1)" offset="100%"/></linearGradient></defs><path style="transform:translate(0, 0px); opacity:1" fill="url(#sw-gradient-0)" d="M0,138L34.3,126.5C68.6,115,137,92,206,103.5C274.3,115,343,161,411,153.3C480,146,549,84,617,49.8C685.7,15,754,8,823,30.7C891.4,54,960,107,1029,138C1097.1,169,1166,176,1234,153.3C1302.9,130,1371,77,1440,61.3C1508.6,46,1577,69,1646,72.8C1714.3,77,1783,61,1851,65.2C1920,69,1989,92,2057,118.8C2125.7,146,2194,176,2263,157.2C2331.4,138,2400,69,2469,34.5C2537.1,0,2606,0,2674,19.2C2742.9,38,2811,77,2880,107.3C2948.6,138,3017,161,3086,153.3C3154.3,146,3223,107,3291,88.2C3360,69,3429,69,3497,72.8C3565.7,77,3634,84,3703,99.7C3771.4,115,3840,138,3909,134.2C3977.1,130,4046,100,4114,107.3C4182.9,115,4251,161,4320,172.5C4388.6,184,4457,161,4526,157.2C4594.3,153,4663,169,4731,145.7C4800,123,4869,61,4903,30.7L4937.1,0L4937.1,230L4902.9,230C4868.6,230,4800,230,4731,230C4662.9,230,4594,230,4526,230C4457.1,230,4389,230,4320,230C4251.4,230,4183,230,4114,230C4045.7,230,3977,230,3909,230C3840,230,3771,230,3703,230C3634.3,230,3566,230,3497,230C3428.6,230,3360,230,3291,230C3222.9,230,3154,230,3086,230C3017.1,230,2949,230,2880,230C2811.4,230,2743,230,2674,230C2605.7,230,2537,230,2469,230C2400,230,2331,230,2263,230C2194.3,230,2126,230,2057,230C1988.6,230,1920,230,1851,230C1782.9,230,1714,230,1646,230C1577.1,230,1509,230,1440,230C1371.4,230,1303,230,1234,230C1165.7,230,1097,230,1029,230C960,230,891,230,823,230C754.3,230,686,230,617,230C548.6,230,480,230,411,230C342.9,230,274,230,206,230C137.1,230,69,230,34,230L0,230Z"/></svg>